<svg xmlns="http://www.w3.org/2000/svg" viewBox="0 0 440 110"><defs><style>.cls-1{fill:#f9f9f9;}.cls-2{fill:#f66;}.cls-3{fill:#64e9f5;}.cls-4{fill:#e65c5c;}.cls-5{fill:#66f7ff;}</style></defs><title>logo_夏木樂_橫_白字</title><g id="圖層_1" data-name="圖層 1"><path class="cls-1" d="M217.63,90.33c-.35,3.84-3,5.14-7.14,4.8-9.41-1-19.77-2.7-29.18-6.36-9.49,3.92-21.33,6.36-36.4,7.57-2.18.09-3.4-.69-3.57-2.35s.61-2.78,2.79-3a119.51,119.51,0,0,0,27.52-6.88,41.76,41.76,0,0,1-9-7.14,50.44,50.44,0,0,1-14.63,7.93c-1.57.69-2.88.26-3.49-1.13a2.55,2.55,0,0,1,1.13-3.57,46.53,46.53,0,0,0,16.9-17.25c.35-.52.61-1,1-1.48h-6.8c-3.22,0-5.05-1.83-5.05-5.14V33.9c0-3.22,1.83-5,5.05-5h15.59c.44-1.57.79-3.05,1.14-4.44H145.35a2.91,2.91,0,0,1-3.23-3.14,3,3,0,0,1,3.23-3.22H213a2.91,2.91,0,0,1,3.13,3.22A2.84,2.84,0,0,1,213,24.41H184.36a40.46,40.46,0,0,1-4,4.44H202c3.31,0,5.14,1.83,5.14,5V56.28c0,3.31-1.83,5.14-5.14,5.14H173.21a4.32,4.32,0,0,1,.09,3.75h22.91c7.23,0,10,5.31,5,10.36a57.73,57.73,0,0,1-8.62,7.23c5.92.87,12.36,1.39,19.16,1.74C216.15,84.76,218,86.94,217.63,90.33ZM162.42,37.91h33.87V35.64a1,1,0,0,0-1-1H163.46a1,1,0,0,0-1,1Zm0,8.79h33.87V43.31H162.42Zm1,8.89h31.79a1,1,0,0,0,1-1.05V52.1H162.42v2.44A1,1,0,0,0,163.46,55.59Zm17,24.38a42.46,42.46,0,0,0,9.84-7.4c.61-.7.27-1.48-.61-1.48H169c-.69.78-1.48,1.57-2.17,2.26A51.69,51.69,0,0,0,180.44,80Z"/><path class="cls-1" d="M323.74,83.8c-2.7,3.4-6.27,3.83-9.84.7C305.62,77.18,297,64,292.13,51.58V90.77c0,3.83-2.09,5.84-5.93,5.84s-5.92-2-5.92-5.84V55.32c-6.09,11.33-16.72,24.56-28.74,31.36-1.74,1-3.13.61-4-.79s-.7-2.7.87-4c12.36-10.28,22.73-26,27.69-41.55H253.72A3.46,3.46,0,0,1,250,36.51a3.44,3.44,0,0,1,3.75-3.74h26.56v-13c0-3.83,2.09-5.66,5.92-5.66s5.93,1.83,5.93,5.66v13H319a3.43,3.43,0,0,1,3.74,3.74c0,2.44-1.39,3.83-3.74,3.83H294c5.93,12.81,16.55,25,28,33.8C325.48,76.84,326.61,80.32,323.74,83.8Z"/><path class="cls-1" d="M434.34,89.55c-1.48,3.31-5,4.18-8.53,2.7C415.79,88,407.08,82,401.42,74.83V91.29c0,3.66-2,5.49-5.66,5.49S390,95,390,91.29V75.79c-7.31,7.58-19.07,13.76-29.52,16.9-1.83.52-3.05.26-3.74-1.31s-.09-3,1.56-3.75c10.28-4.44,18.29-9.14,25.35-16.89H362.23c-2,0-3.13-1.22-3.13-3.31s1.13-3.4,3.13-3.4H390V62.12c0-2.35,1-3.83,2.88-4.53h-4.62a4.76,4.76,0,0,1-3.74-1.39c-.09,1.74-1,2.7-3,3.13-2.53.52-4.1-.52-4.44-3.31-.09-.35-.09-.78-.18-1.13a56.24,56.24,0,0,1-13.06,4.53c-3,.61-5.23-.52-5.66-3.49s.95-5,4.26-5.13a4.15,4.15,0,0,0,1.05-.09,93,93,0,0,0,6.1-10.19,50.11,50.11,0,0,1-6.27,1.65c-2.79.53-5-.52-5.23-3.48-.26-2.79,1.13-4.18,3.83-4.44a118.66,118.66,0,0,0,3.83-15.07c.7-3.4,2.79-4.35,5.75-3.74s3.83,3,2.61,6.35A71.14,71.14,0,0,1,368.24,34c1.57-.18,3.14-.26,4.71-.44.69-1.65,1.48-3.4,2.09-5,1.13-2.87,3.39-3.57,6.09-2.53a3.82,3.82,0,0,1,2.09,1.92c.26-2.87,2-4.44,5-4.44h3.14c.26-2,.43-4.09.7-5.92.34-3.14,2.17-4.18,5.22-3.84s4.27,2.53,3.48,5.06a23.71,23.71,0,0,1-2.35,4.7h4.18c3.31,0,5.14,1.83,5.14,5.05v6.27a4.7,4.7,0,0,1,1.74-.52A107.54,107.54,0,0,0,413.18,19c.52-3.4,2.79-4.27,5.66-3.66s3.83,2.87,2.79,5.92a64.09,64.09,0,0,1-6.18,12.8c1.65-.08,3.22-.17,4.79-.34l2.09-4.88c1.13-3.05,3.48-3.92,6.18-2.79s3.31,3.92,1.92,6.62a83.06,83.06,0,0,1-12.46,17,59,59,0,0,0,6-.61c-.26-1.13-.44-2.26-.7-3.31a2.44,2.44,0,0,1,1.66-3.13c1.3-.44,2.26.09,3.13,1.48a41.83,41.83,0,0,1,4.62,10.19c.7,2.44,0,4.27-2.61,5s-4.36-.34-4.88-3.31c-.09-.69-.26-1.3-.35-1.91a61.27,61.27,0,0,1-12.71,4.27c-2.62.52-4.53-.44-5.14-2.7a4.92,4.92,0,0,1-4.36,2h-4.09c1.92.7,2.87,2.18,2.87,4.53V64h28.05c2,0,3.22,1.22,3.22,3.4a3,3,0,0,1-3.22,3.31H405.69c6.62,5.14,15.5,8.45,25,11C434.52,82.76,436,85.89,434.34,89.55ZM383.22,50.62V31.29a4.74,4.74,0,0,1-.43,1.13,80.49,80.49,0,0,1-12.54,17.77c2-.18,3.91-.53,5.83-.79-.17-1.13-.44-2.26-.61-3.31-.26-1.65.26-2.7,1.66-3.13s2.43.08,3.22,1.48A33.37,33.37,0,0,1,383.22,50.62Zm15.42-21.34h-6.27a1,1,0,0,0-1.05,1V37h8.36V30.33A1,1,0,0,0,398.64,29.28Zm-6.27,22.39h6.27a1,1,0,0,0,1-1.05V42.87h-8.36v7.75A1,1,0,0,0,392.37,51.67Zm15.41-10.54v9.93A4.43,4.43,0,0,1,410.83,50h.61c1.92-3,3.83-6.36,5.66-9.84a41.45,41.45,0,0,1-5.57,1.66A4.14,4.14,0,0,1,407.78,41.13Z"/><path class="cls-2" d="M94,29.67c-5.08,3-15.36,8.81-20.46,11.75-5.62,3.23-22.41,12.93-22.41,12.93L27.68,67.73l0,0-1.05-.63c-.36-.22-.72-.44-1.07-.67s-.7-.46-1-.7-.5-.34-.74-.52A45.13,45.13,0,0,1,5.07,32c0-.3,0-.59-.05-.89l0-.89a2.63,2.63,0,0,1,1.3-2.38L49.81,1.05a2.72,2.72,0,0,1,2.61,0L94,25.16A2.55,2.55,0,0,1,94,29.67Z"/><path class="cls-3" d="M96.91,79.69v.13a2.41,2.41,0,0,1-1.3,2.25L52.43,108.93a2.61,2.61,0,0,1-2.62,0L6.9,84.26a2.48,2.48,0,0,1,0-4.48l20.78-12L51.12,54.35,73.53,41.42c1.37.79,2.74,1.62,4.08,2.49A44.27,44.27,0,0,1,95.86,70.54a55.57,55.57,0,0,1,1,9Z"/><path class="cls-4" d="M51.12,54.35,27.68,67.73l0,0-1.05-.63c-.36-.22-.72-.44-1.07-.67s-.7-.46-1-.7-.5-.34-.74-.52l-1-.71A45.12,45.12,0,0,1,5.13,32.66a1,1,0,0,1,0-.17c0-.5-.07-1-.1-1.53A1.3,1.3,0,0,1,7,29.78L27.71,40.84Z"/><path class="cls-5" d="M96.91,79.78v0a2.41,2.41,0,0,1-1.3,2.25L52.43,108.93s0,0,0,0a.89.89,0,0,1-1.29-.81V54.35L73.53,41.42c1.37.79,2.74,1.62,4.08,2.49A44.27,44.27,0,0,1,95.86,70.54a55.57,55.57,0,0,1,1,9Z"/></g></svg>