<svg xmlns="http://www.w3.org/2000/svg" xmlns:xlink="http://www.w3.org/1999/xlink" viewBox="0 0 273.84 44.18"><defs><style>.cls-1{fill:#00aa61;}.cls-2{opacity:0.5;}.cls-3{fill:url(#未命名漸層_96);}.cls-4{fill:#fff;}.cls-5{fill:url(#primary);}.cls-6{fill:#f2f2f2;}</style><linearGradient id="未命名漸層_96" x1="30.36" y1="25.23" x2="36.5" y2="20.93" gradientUnits="userSpaceOnUse"><stop offset="0"/><stop offset="0.07" stop-opacity="0.83"/><stop offset="0.5" stop-opacity="0.65"/><stop offset="0.93" stop-opacity="0.83"/><stop offset="1"/></linearGradient><linearGradient id="primary" x1="61.28" y1="38.13" x2="11.96" y2="-11.19" gradientUnits="userSpaceOnUse"><stop offset="0" stop-color="#38f8d6"/><stop offset="0.61" stop-color="#43e87b"/></linearGradient></defs><g id="圖層_1" data-name="圖層 1"><polygon class="cls-1" points="26.84 20.2 40.01 38.6 40.01 25.95 26.84 7.55 26.84 20.2"/><g class="cls-2"><polygon class="cls-3" points="26.84 20.2 40.01 38.6 40.01 25.95 26.84 7.55 26.84 20.2"/></g><path class="cls-4" d="M53.23,0H43.8a.47.47,0,0,0-.39.74L61.79,26.56a.47.47,0,0,0,.85-.28V9.41A9.41,9.41,0,0,0,53.23,0Z"/><path class="cls-4" d="M7.89.5H.47a.47.47,0,0,0-.38.74L24,34.67a9.38,9.38,0,0,0,7.65,3.93H40L15.54,4.43A9.38,9.38,0,0,0,7.89.5Z"/><path class="cls-4" d="M42.83,11.48a9.44,9.44,0,0,0-7.65-3.93H26.84L46.26,34.67a9.4,9.4,0,0,0,7.65,3.93h6.5a.94.94,0,0,0,.77-1.49Z"/><path class="cls-5" d="M53.23,0H43.8a.47.47,0,0,0-.39.74L61.79,26.56a.47.47,0,0,0,.85-.28V9.41A9.41,9.41,0,0,0,53.23,0Z"/><path class="cls-5" d="M7.89.5H.47a.47.47,0,0,0-.38.74L24,34.67a9.38,9.38,0,0,0,7.65,3.93H40L15.54,4.43A9.38,9.38,0,0,0,7.89.5Z"/><path class="cls-5" d="M42.83,11.48a9.44,9.44,0,0,0-7.65-3.93H26.84L46.26,34.67a9.4,9.4,0,0,0,7.65,3.93h6.5a.94.94,0,0,0,.77-1.49Z"/><path class="cls-6" d="M106.48,11a3,3,0,0,1,1.68-.51,2.87,2.87,0,0,1,2,.72,2.39,2.39,0,0,1,.84,1.93,4.44,4.44,0,0,1-.27,1.36L103.84,33a2.77,2.77,0,0,1-1.24,1.48,3.87,3.87,0,0,1-2,.53,3.8,3.8,0,0,1-2-.53A2.79,2.79,0,0,1,97.41,33L93,20.38,88.37,33a2.94,2.94,0,0,1-1.26,1.48,3.71,3.71,0,0,1-1.93.53,3.81,3.81,0,0,1-2-.53A2.78,2.78,0,0,1,82,33l-6.87-18.5a3.85,3.85,0,0,1-.24-1.29,2.43,2.43,0,0,1,.9-2,3.26,3.26,0,0,1,2.09-.73,3.3,3.3,0,0,1,1.76.5,2.71,2.71,0,0,1,1.14,1.47l4.65,13.4,4.93-13.4A2.89,2.89,0,0,1,91.45,11a3,3,0,0,1,1.68-.51,2.84,2.84,0,0,1,2.76,2l4.62,13.67,4.86-13.71A2.89,2.89,0,0,1,106.48,11Z"/><path class="cls-6" d="M114.33,14.44a2.69,2.69,0,0,1-.9-2.12,2.64,2.64,0,0,1,.9-2.11,4.14,4.14,0,0,1,4.84,0,2.6,2.6,0,0,1,.92,2.11,2.69,2.69,0,0,1-.9,2.12,4.09,4.09,0,0,1-4.86,0Zm.27,19.76a2.52,2.52,0,0,1-.87-2.09V20.41a2.51,2.51,0,0,1,.87-2.09,3.68,3.68,0,0,1,4.32,0,2.51,2.51,0,0,1,.87,2.09v11.7a2.52,2.52,0,0,1-.87,2.09,3.73,3.73,0,0,1-4.32,0Z"/><path class="cls-6" d="M139,19.34a8.47,8.47,0,0,1,1.46,5.42v7.35a2.62,2.62,0,0,1-.82,2,3.67,3.67,0,0,1-4.42,0,2.64,2.64,0,0,1-.81-2V25a3.57,3.57,0,0,0-.53-2.17,1.86,1.86,0,0,0-1.58-.68,2.78,2.78,0,0,0-2.16.87,3.29,3.29,0,0,0-.8,2.32v6.74a2.62,2.62,0,0,1-.82,2,3.67,3.67,0,0,1-4.42,0,2.64,2.64,0,0,1-.81-2V20.34a2.5,2.5,0,0,1,.85-1.95,3.16,3.16,0,0,1,2.21-.77,2.86,2.86,0,0,1,2.05.72,2.43,2.43,0,0,1,.77,1.87,5.89,5.89,0,0,1,2.28-2,7,7,0,0,1,3.09-.68A5.44,5.44,0,0,1,139,19.34Z"/><path class="cls-6" d="M160.71,11.32a2.49,2.49,0,0,1,.86,1.95V32.11a2.64,2.64,0,0,1-.81,2,3.1,3.1,0,0,1-2.18.74,3.14,3.14,0,0,1-2.06-.66,2.56,2.56,0,0,1-.9-1.82,4.78,4.78,0,0,1-2.09,1.87,6.69,6.69,0,0,1-3,.68,6.89,6.89,0,0,1-3.83-1.1A7.46,7.46,0,0,1,144,30.75a10.52,10.52,0,0,1-.95-4.59,10.43,10.43,0,0,1,.93-4.54,7,7,0,0,1,2.62-3,7.14,7.14,0,0,1,3.86-1.06,6.73,6.73,0,0,1,2.94.65,5.28,5.28,0,0,1,2.09,1.73V13.17a2.45,2.45,0,0,1,.8-1.91,3.14,3.14,0,0,1,2.16-.71A3.27,3.27,0,0,1,160.71,11.32Zm-5.94,18a5,5,0,0,0,.85-3.13,4.82,4.82,0,0,0-.85-3.07,3.32,3.32,0,0,0-4.86,0,4.69,4.69,0,0,0-.85,3,5.05,5.05,0,0,0,.87,3.16,2.84,2.84,0,0,0,2.39,1.12A2.9,2.9,0,0,0,154.77,29.35Z"/><path class="cls-6" d="M188.42,18.05a2.32,2.32,0,0,1,1.37-.43,3,3,0,0,1,2,.77,2.36,2.36,0,0,1,.88,1.85,2.81,2.81,0,0,1-.27,1.12l-5.51,11.8a2.81,2.81,0,0,1-1.14,1.31,3.17,3.17,0,0,1-1.68.46,3.11,3.11,0,0,1-1.67-.46,2.88,2.88,0,0,1-1.12-1.31L178.06,26l-3,7.17a2.65,2.65,0,0,1-1.11,1.31,3.17,3.17,0,0,1-1.68.46,3.23,3.23,0,0,1-1.69-.46,3,3,0,0,1-1.17-1.31l-5.47-11.8a2.52,2.52,0,0,1-.24-1.09,2.33,2.33,0,0,1,.94-1.88,3.2,3.2,0,0,1,2.09-.77,2.61,2.61,0,0,1,1.47.43,2.57,2.57,0,0,1,1,1.31l3.23,7.85,3.3-7.82a2.51,2.51,0,0,1,1.05-1.29,2.88,2.88,0,0,1,3.06,0,2.51,2.51,0,0,1,1,1.29l3.4,7.85,3.17-7.92A2.64,2.64,0,0,1,188.42,18.05Z"/><path class="cls-6" d="M208.14,19.41C209.37,20.64,210,22.52,210,25v7.11a2.65,2.65,0,0,1-.77,2,2.94,2.94,0,0,1-2.12.73,2.8,2.8,0,0,1-2-.68,2.5,2.5,0,0,1-.83-1.83,3.77,3.77,0,0,1-1.6,1.9A5,5,0,0,1,200,35a7,7,0,0,1-3.13-.69,5.61,5.61,0,0,1-2.2-1.94,5.09,5.09,0,0,1-.79-2.81,4.22,4.22,0,0,1,.93-2.87,5.54,5.54,0,0,1,3-1.55,25.09,25.09,0,0,1,5.5-.47h.92v-.41a2.32,2.32,0,0,0-.54-1.72,2.61,2.61,0,0,0-1.84-.53,13.41,13.41,0,0,0-4.08,1,4.17,4.17,0,0,1-1.32.27,1.7,1.7,0,0,1-1.36-.61,2.42,2.42,0,0,1-.51-1.6,2.29,2.29,0,0,1,.3-1.23,2.74,2.74,0,0,1,1-.85,12.18,12.18,0,0,1,3-1,17.34,17.34,0,0,1,3.54-.38Q206.28,17.55,208.14,19.41Zm-4.68,10.64a3.21,3.21,0,0,0,.78-2.23v-.41h-.54a8.47,8.47,0,0,0-3.1.4,1.33,1.33,0,0,0-.91,1.3,1.78,1.78,0,0,0,.49,1.3,1.69,1.69,0,0,0,1.27.51A2.58,2.58,0,0,0,203.46,30.05Z"/><path class="cls-6" d="M214.25,34.2a2.55,2.55,0,0,1-.86-2.09V13.37a2.6,2.6,0,0,1,.86-2.11,3.64,3.64,0,0,1,4.32,0,2.58,2.58,0,0,1,.87,2.11V32.11a2.52,2.52,0,0,1-.87,2.09,3.73,3.73,0,0,1-4.32,0Z"/><path class="cls-6" d="M240.52,32a2.93,2.93,0,0,1-.8,2,2.48,2.48,0,0,1-1.92.88,2.88,2.88,0,0,1-1.91-.85L229,27.45V32a2.6,2.6,0,0,1-.86,2.11,3.64,3.64,0,0,1-4.32,0,2.58,2.58,0,0,1-.87-2.11V13.37a2.58,2.58,0,0,1,.87-2.11,3.64,3.64,0,0,1,4.32,0,2.6,2.6,0,0,1,.86,2.11V24.9l6.29-6.39a2.64,2.64,0,0,1,3.9-.06,2.64,2.64,0,0,1,.83,1.89,2.74,2.74,0,0,1-.88,1.94L235.42,26,239.64,30A2.69,2.69,0,0,1,240.52,32Z"/><path class="cls-6" d="M257.4,29.93a2.46,2.46,0,0,1,.49,1.6,2.23,2.23,0,0,1-1.32,2.07,13,13,0,0,1-2.74,1,12.17,12.17,0,0,1-2.91.39,10.61,10.61,0,0,1-4.86-1.05,7.41,7.41,0,0,1-3.19-3,9.14,9.14,0,0,1-1.13-4.62,9.42,9.42,0,0,1,1.07-4.51,7.82,7.82,0,0,1,3-3.09,8.48,8.48,0,0,1,4.33-1.11,8.1,8.1,0,0,1,4.12,1A7,7,0,0,1,257,21.46a9.38,9.38,0,0,1,1,4.39,1.84,1.84,0,0,1-.36,1.21,1.26,1.26,0,0,1-1,.42h-9a3.77,3.77,0,0,0,1,2.35,3.62,3.62,0,0,0,2.42.71,6.3,6.3,0,0,0,1.56-.18,15.65,15.65,0,0,0,1.6-.53c.34-.14.67-.26,1-.36a3.14,3.14,0,0,1,.91-.15A1.55,1.55,0,0,1,257.4,29.93Zm-9-7.53a3.64,3.64,0,0,0-.85,2.23h5.33q-.19-3-2.58-3A2.47,2.47,0,0,0,248.41,22.4Z"/><path class="cls-6" d="M273.16,18.15a2.42,2.42,0,0,1,.68,1.85,2.63,2.63,0,0,1-.63,2,3.85,3.85,0,0,1-2.26.79l-1,.1a3.57,3.57,0,0,0-2.43,1.07,3.53,3.53,0,0,0-.73,2.36v5.82a2.52,2.52,0,0,1-.87,2.09,3.73,3.73,0,0,1-4.32,0,2.52,2.52,0,0,1-.87-2.09V20.34a2.43,2.43,0,0,1,.87-2,3.18,3.18,0,0,1,2.09-.72,3,3,0,0,1,2,.68,2.43,2.43,0,0,1,.76,1.91v.64a4.52,4.52,0,0,1,1.79-2.31,5.09,5.09,0,0,1,2.6-.88l.47,0A2.28,2.28,0,0,1,273.16,18.15Z"/></g></svg>